Coordinates
version=1
nRows=14
nColumns=63
inDegrees=yes

Units are S.I. units (second, meters, Newtons, ...)
If the header above contains a line with 'inDegrees', this indicates whether rotational values are in degrees (yes) or radians (no).

endheader
time	pelvis_tilt	pelvis_list	pelvis_rotation	pelvis_tx	pelvis_ty	pelvis_tz	hip_flexion_r	hip_adduction_r	hip_rotation_r	knee_angle_r	knee_angle_r_beta	ankle_angle_r	subtalar_angle_r	mtp_angle_r	hip_flexion_l	hip_adduction_l	hip_rotation_l	knee_angle_l	knee_angle_l_beta	ankle_angle_l	subtalar_angle_l	mtp_angle_l	L5_S1_Flex_Ext	L5_S1_Lat_Bending	L5_S1_axial_rotation	L4_L5_Flex_Ext	L4_L5_Lat_Bending	L4_L5_axial_rotation	L3_L4_Flex_Ext	L3_L4_Lat_Bending	L3_L4_axial_rotation	L2_L3_Flex_Ext	L2_L3_Lat_Bending	L2_L3_axial_rotation	L1_L2_Flex_Ext	L1_L2_Lat_Bending	L1_L2_axial_rotation	L1_T12_Flex_Ext	L1_T12_Lat_Bending	L1_T12_axial_rotation	Abs_r3	Abs_r2	Abs_r1	Abs_t1	Abs_t2	neck_flexion	neck_bending	neck_rotation	arm_flex_r	arm_add_r	arm_rot_r	elbow_flex_r	pro_sup_r	wrist_flex_r	wrist_dev_r	arm_flex_l	arm_add_l	arm_rot_l	elbow_flex_l	pro_sup_l	wrist_flex_l	wrist_dev_l
4.766667	2.427635	-2.377959	112.472507	0.234864	0.786125	0.877190	4.726946	1.485848	-2.789961	19.616251	0.342368	28.382207	-13.060235	0.000000	9.821687	-0.687376	12.332865	22.784971	0.397673	35.459824	-4.354258	0.000000	-0.076823	0.290545	0.221867	-0.142668	0.386424	0.235733	-0.126212	0.706430	0.235733	-0.087801	0.706430	0.194133	-0.071338	0.592479	0.180267	-0.043897	0.450054	0.166400	-0.548738	3.286700	1.233956	0.000000	0.000000	11.636619	-0.668323	-4.405006	36.332989	-25.249142	-73.639582	93.807397	89.767888	-54.467119	-24.492137	22.433110	-0.556549	49.570552	125.668087	83.017272	1.247155	13.544870
4.783333	2.489512	-2.220687	112.688527	0.235903	0.786638	0.878642	4.701474	1.638766	-2.833938	19.686929	0.343602	28.212293	-13.147444	0.000000	9.679397	-0.895988	12.191609	22.534377	0.393299	35.386539	-3.959982	0.000000	-0.090506	0.272497	0.412781	-0.168079	0.362421	0.438580	-0.148692	0.662549	0.438580	-0.103439	0.662549	0.361184	-0.084044	0.555676	0.335385	-0.051715	0.422098	0.309586	-0.646476	3.082541	2.295767	0.000000	0.000000	11.226234	-0.396701	-5.611004	41.039596	-24.887910	-66.223206	89.006346	89.736171	-52.711493	-23.846027	23.268337	0.494447	50.605319	124.926432	81.355483	-1.433881	15.999046
4.800000	2.497581	-2.146057	112.760220	0.237372	0.786777	0.879645	4.770125	1.749517	-2.729497	19.830260	0.346103	28.121217	-13.310382	0.000000	9.589330	-1.068479	11.897794	22.327038	0.389680	35.373943	-3.524291	0.000000	-0.098610	0.244806	0.618369	-0.183128	0.325592	0.657017	-0.162006	0.595221	0.657017	-0.112701	0.595221	0.541073	-0.091569	0.499208	0.502425	-0.056346	0.379204	0.463777	-0.704360	2.769293	3.439184	0.000000	0.000000	11.029753	-0.067984	-6.628872	45.619190	-24.203888	-58.416221	83.508520	89.613008	-50.352366	-22.701944	24.944868	1.922941	50.553191	122.410914	80.300024	-3.561705	17.524908
4.816667	2.460645	-2.161478	112.715727	0.239191	0.786490	0.880174	4.943153	1.817338	-2.511146	20.049497	0.349930	28.152398	-13.523261	0.000000	9.569775	-1.202160	11.476867	22.180399	0.387121	35.428584	-3.052512	0.000000	-0.100407	0.208552	0.823266	-0.186466	0.277375	0.874720	-0.164959	0.507074	0.874720	-0.114755	0.507074	0.720358	-0.093238	0.425280	0.668904	-0.057373	0.323048	0.617450	-0.717198	2.359186	4.578760	0.000000	0.000000	11.069489	0.308240	-7.396938	49.980873	-23.108623	-50.259437	77.468902	89.366821	-47.667368	-21.059728	27.456624	3.563284	49.459383	118.183927	79.475306	-5.182003	18.172915
4.833333	2.393310	-2.259819	112.594731	0.241270	0.785772	0.880240	5.213645	1.851661	-2.225573	20.339117	0.354985	28.332422	-13.762177	0.000000	9.629256	-1.306659	10.953302	22.109806	0.385889	35.565835	-2.535329	0.000000	-0.095889	0.166117	1.015039	-0.178075	0.220935	1.078479	-0.157536	0.403896	1.078479	-0.109591	0.403896	0.888159	-0.089042	0.338745	0.824719	-0.054791	0.257315	0.761279	-0.684923	1.879147	5.645341	0.000000	0.000000	11.325062	0.709781	-7.897652	54.062036	-21.526883	-41.808150	71.134411	88.972170	-44.818753	-18.904219	30.726616	5.278742	47.416487	112.412171	78.939686	-6.414565	18.064747
4.850000	2.293237	-2.425256	112.433735	0.243554	0.784662	0.879877	5.560880	1.852758	-1.907307	20.692715	0.361156	28.667970	-14.022127	0.000000	9.757683	-1.381776	10.344566	22.116145	0.386000	35.795311	-1.958384	0.000000	-0.086510	0.118553	1.189740	-0.160657	0.157676	1.264099	-0.142127	0.288250	1.264099	-0.098872	0.288250	1.041023	-0.080333	0.241753	0.966664	-0.049432	0.183639	0.892305	-0.617930	1.341095	6.616978	0.000000	0.000000	11.728323	1.099215	-8.134346	57.829462	-19.449795	-33.148304	64.781498	88.509750	-41.916895	-16.337374	34.644768	6.897174	44.440566	105.241926	83.284510	-8.842633	17.942411
4.866667	2.176554	-2.636385	112.264375	0.245939	0.783224	0.879160	5.963245	1.838525	-1.580671	21.098551	0.368239	29.137766	-14.300249	0.000000	9.946994	-1.444635	9.665611	22.199274	0.387450	36.126267	-1.310555	0.000000	-0.073385	0.067914	1.345022	-0.136284	0.090326	1.429086	-0.120565	0.165126	1.429086	-0.083872	0.165126	1.176894	-0.068145	0.138491	1.092830	-0.041932	0.105199	1.008766	-0.524183	0.768258	7.480608	0.000000	0.000000	12.207403	1.488494	-8.197873	61.315583	-16.952688	-24.266445	58.685917	88.029431	-39.050472	-13.569201	38.888440	8.466425	40.756161	97.300225	85.309232	-10.923005	17.117684
4.883333	2.047347	-2.876133	112.113681	0.248339	0.781531	0.878159	6.398352	1.810233	-1.279038	21.544866	0.376029	29.723215	-14.569515	0.000000	10.183031	-1.495390	8.950160	22.348321	0.390052	36.557936	-0.611216	0.000000	-0.058401	0.016099	1.487136	-0.108456	0.021412	1.580083	-0.095946	0.039144	1.580083	-0.066746	0.039144	1.301244	-0.054231	0.032830	1.208298	-0.033370	0.024938	1.115352	-0.417150	0.182120	8.271007	0.000000	0.000000	12.698350	1.851140	-8.128420	64.559624	-14.184363	-15.178580	53.102293	87.600040	-36.249852	-10.833284	43.191086	9.955956	36.507608	89.029348	85.251037	-12.714777	15.442401
4.900000	1.902280	-3.141908	111.975509	0.250734	0.779640	0.876906	6.857730	1.765248	-0.988762	22.024354	0.384397	30.387717	-14.826111	0.000000	10.453096	-1.531371	8.199921	22.542426	0.393440	37.082857	0.131294	0.000000	-0.042438	-0.037179	1.632889	-0.078811	-0.049449	1.734945	-0.069721	-0.090398	1.734945	-0.048502	-0.090398	1.428778	-0.039408	-0.075816	1.326723	-0.024249	-0.057591	1.224667	-0.303128	-0.420580	9.081641	0.000000	0.000000	13.166676	2.114903	-8.045808	67.562543	-11.313330	-6.039652	48.258620	87.257219	-33.391713	-8.282048	47.323713	11.353960	31.858357	80.833403	83.330739	-14.093798	12.902964
4.916667	1.739498	-3.428884	111.844363	0.253114	0.777611	0.875460	7.330372	1.702777	-0.697337	22.524587	0.393128	31.107319	-15.060138	0.000000	10.749526	-1.546629	7.432099	22.774766	0.397495	37.670920	0.874994	0.000000	-0.026903	-0.092921	1.798635	-0.049962	-0.123585	1.911050	-0.044200	-0.225929	1.911050	-0.030748	-0.225929	1.573806	-0.024982	-0.189485	1.461391	-0.015373	-0.143935	1.348976	-0.192168	-1.051145	10.003468	0.000000	0.000000	13.584310	2.316376	-8.064503	70.256174	-8.508472	2.896517	44.313853	86.976830	-30.511775	-6.041283	51.104866	12.628880	27.035910	73.102048	79.750206	-15.150440	9.508611
4.933333	1.545898	-3.735620	111.695331	0.255523	0.775501	0.873866	7.811718	1.617163	-0.361815	23.043099	0.402178	31.835268	-15.290960	0.000000	11.054031	-1.536309	6.614908	23.021474	0.401801	38.294639	1.637146	0.000000	-0.012400	-0.153755	1.999064	-0.023028	-0.204494	2.124006	-0.020372	-0.373840	2.124006	-0.014172	-0.373840	1.749181	-0.011515	-0.313537	1.624240	-0.007085	-0.238167	1.499298	-0.088572	-1.739308	11.118196	0.000000	0.000000	13.954843	2.434285	-8.285190	72.527777	-5.915556	11.257181	41.320317	86.760074	-27.656383	-4.222378	54.410623	13.665013	22.570996	66.241910	70.975247	-14.968334	4.838412
4.950000	1.309729	-4.058032	111.515850	0.257996	0.773363	0.872193	8.297055	1.501003	0.039504	23.577607	0.411507	32.545457	-15.530002	0.000000	11.352109	-1.492234	5.737773	23.266056	0.406069	38.920129	2.419439	0.000000	-0.000288	-0.221872	2.232747	-0.000535	-0.295090	2.372294	-0.000473	-0.539459	2.372294	-0.000329	-0.539459	1.953654	-0.000267	-0.452441	1.814107	-0.000165	-0.343680	1.674560	-0.002057	-2.509859	12.417869	0.000000	0.000000	14.306595	2.473448	-8.747508	74.279121	-3.639879	18.727622	39.232296	86.690994	-25.064635	-2.917337	57.207091	14.321298	18.356233	60.345331	63.260590	-14.699075	0.162005
4.966667	1.031441	-4.402254	111.288428	0.260508	0.771236	0.870484	8.793998	1.350726	0.512910	24.122750	0.421021	33.212281	-15.765354	0.000000	11.638418	-1.410299	4.804792	23.484904	0.409889	39.513499	3.203755	0.000000	0.010591	-0.297750	2.479015	0.019668	-0.396008	2.633954	0.017400	-0.723950	2.633954	0.012104	-0.723950	2.169138	0.009835	-0.607172	2.014200	0.006052	-0.461215	1.859262	0.075650	-3.368211	13.787540	0.000000	0.000000	14.693288	2.428113	-9.389646	75.504137	-1.707083	25.147426	37.905460	86.814613	-22.884969	-2.200015	59.517562	14.564867	14.524987	55.598839	57.091474	-13.207113	-3.727568
4.983333	0.718495	-4.774733	110.994476	0.262997	0.769148	0.868779	9.311911	1.169551	1.058600	24.669381	0.430562	33.813678	-15.992519	0.000000	11.912993	-1.291209	3.823576	23.658364	0.412916	40.053923	3.961235	0.000000	0.021978	-0.379376	2.708605	0.040815	-0.504570	2.877893	0.036108	-0.922414	2.877893	0.025119	-0.922414	2.370029	0.020409	-0.773623	2.200741	0.012558	-0.587653	2.031454	0.156987	-4.291573	15.064447	0.000000	0.000000	15.185350	2.281081	-10.059620	76.303664	-0.074528	30.516070	37.135693	86.946763	-21.117917	-2.112113	61.426301	14.365659	11.465379	52.005420	52.429612	-10.894718	-6.651187
